<svg width="60" height="38" viewBox="0 0 60 38" fill="none" xmlns="http://www.w3.org/2000/svg">
<path fill-rule="evenodd" clip-rule="evenodd" d="M15.189 13.0473C18.5514 13.0473 21.2771 10.3215 21.2771 6.95918C21.2771 3.59682 18.5514 0.871094 15.189 0.871094C11.8267 0.871094 9.10093 3.59682 9.10093 6.95918C9.10093 10.3215 11.8267 13.0473 15.189 13.0473ZM6.08808 25.0886C9.45044 25.0886 12.1762 22.3629 12.1762 19.0005C12.1762 15.6381 9.45044 12.9124 6.08808 12.9124C2.72573 12.9124 0 15.6381 0 19.0005C0 22.3629 2.72573 25.0886 6.08808 25.0886ZM21.2771 31.041C21.2771 34.4034 18.5513 37.1291 15.189 37.1291C11.8266 37.1291 9.1009 34.4034 9.1009 31.041C9.1009 27.6786 11.8266 24.9529 15.189 24.9529C18.5513 24.9529 21.2771 27.6786 21.2771 31.041ZM29.6794 32.4196C33.0417 32.4196 35.7675 29.6939 35.7675 26.3315C35.7675 22.9692 33.0417 20.2435 29.6794 20.2435C26.317 20.2435 23.5913 22.9692 23.5913 26.3315C23.5913 29.6939 26.317 32.4196 29.6794 32.4196ZM35.7675 11.6694C35.7675 15.0318 33.0418 17.7575 29.6794 17.7575C26.3171 17.7575 23.5913 15.0318 23.5913 11.6694C23.5913 8.30707 26.3171 5.58135 29.6794 5.58135C33.0418 5.58135 35.7675 8.30707 35.7675 11.6694ZM44.1683 13.0473C47.5307 13.0473 50.2564 10.3215 50.2564 6.95918C50.2564 3.59682 47.5307 0.871094 44.1683 0.871094C40.806 0.871094 38.0802 3.59682 38.0802 6.95918C38.0802 10.3215 40.806 13.0473 44.1683 13.0473ZM59.3588 19.0005C59.3588 22.3628 56.6331 25.0886 53.2707 25.0886C49.9084 25.0886 47.1826 22.3628 47.1826 19.0005C47.1826 15.6381 49.9084 12.9124 53.2707 12.9124C56.6331 12.9124 59.3588 15.6381 59.3588 19.0005ZM44.1683 37.1291C47.5307 37.1291 50.2564 34.4034 50.2564 31.041C50.2564 27.6786 47.5307 24.9529 44.1683 24.9529C40.806 24.9529 38.0803 27.6786 38.0803 31.041C38.0803 34.4034 40.806 37.1291 44.1683 37.1291Z" fill="#0B3954"/>
</svg>
