<svg width="24" height="24" viewBox="0 0 24 24" fill="none" xmlns="http://www.w3.org/2000/svg">
<g clip-path="url(#clip0_616_1345)">
<path d="M3.75 6V18C3.75 18.3978 3.90804 18.7794 4.18934 19.0607C4.47064 19.342 4.85218 19.5 5.25 19.5H20.25C20.4489 19.5 20.6397 19.421 20.7803 19.2803C20.921 19.1397 21 18.9489 21 18.75V8.25C21 8.05109 20.921 7.86032 20.7803 7.71967C20.6397 7.57902 20.4489 7.5 20.25 7.5H5.25C4.85218 7.5 4.47064 7.34196 4.18934 7.06066C3.90804 6.77936 3.75 6.39782 3.75 6ZM3.75 6C3.75 5.60218 3.90804 5.22064 4.18934 4.93934C4.47064 4.65804 4.85218 4.5 5.25 4.5H18" stroke="#939393" stroke-width="1.8" stroke-linecap="round" stroke-linejoin="round"/>
<path d="M16.875 14.25C17.4963 14.25 18 13.7463 18 13.125C18 12.5037 17.4963 12 16.875 12C16.2537 12 15.75 12.5037 15.75 13.125C15.75 13.7463 16.2537 14.25 16.875 14.25Z" fill="#939393"/>
</g>
<defs>
<clipPath id="clip0_616_1345">
<rect width="24" height="24" fill="white"/>
</clipPath>
</defs>
</svg>
